# xmcd CD database file
#
# Track frame offsets:
#	150
#	21742
#	40089
#	59736
#	82049
#	110479
#	134031
#	154532
#	177404
#	200992
#	223466
#	243329
#	271513
#	295109
#
# Disc length: 4223 seconds
#
# Revision: 3
# Processed by: cddbd v1.5.2PL0 Copyright (c) Steve Scherf et al.
# Submitted via: CDex 1.51
#
DISCID=e0107d0e
DTITLE=m.age.project - Mirador
DYEAR=2010
DGENRE=Jazz
TTITLE0=plaza nueva
TTITLE1=café solo
TTITLE2=rio darro
TTITLE3=it all comes (feat. manoo)
TTITLE4=mirador
TTITLE5=hidden orchard
TTITLE6=lamp trader rondeau
TTITLE7=gran reserva
TTITLE8=salma and suleyka
TTITLE9=taxi on wax
TTITLE10=mártir de lo cotidiano
TTITLE11=resurrection and rain
TTITLE12=la luna sobre sacromonte
TTITLE13=purple spice
EXTD=YEAR: 2010
EXTT0=
EXTT1=
EXTT2=
EXTT3=
EXTT4=
EXTT5=
EXTT6=
EXTT7=
EXTT8=
EXTT9=
EXTT10=
EXTT11=
EXTT12=
EXTT13=
PLAYORDER=
